<?xml version="1.0" encoding="UTF-8"?>
<svg version="1.1" xmlns="http://www.w3.org/2000/svg" width="300" height="300">
<path d="M0 0 C99 0 198 0 300 0 C300 99 300 198 300 300 C201 300 102 300 0 300 C0 201 0 102 0 0 Z " fill="#0C1013" transform="translate(0,0)"/>
<path d="M0 0 C10.23 0 20.46 0 31 0 C46.16302396 26.46878744 46.16302396 26.46878744 51.109375 35.35546875 C51.74472168 36.49636963 52.38006836 37.63727051 53.03466797 38.81274414 C54.24506478 40.99123361 55.45250798 43.17136723 56.65673828 45.35327148 C57.20056152 46.33239502 57.74438477 47.31151855 58.3046875 48.3203125 C58.77890137 49.17898926 59.25311523 50.03766602 59.74169922 50.92236328 C60.95794899 53.11696234 60.95794899 53.11696234 63 55 C63.16579811 54.03280281 63.16579811 54.03280281 63.33494568 53.04606628 C64.4839125 46.34622471 65.63614179 39.64695012 66.7902832 32.94799805 C67.22081176 30.44651505 67.65050303 27.9448878 68.0793457 25.44311523 C68.69523543 21.85101853 69.31411611 18.25944821 69.93359375 14.66796875 C70.12529648 13.54601608 70.31699921 12.42406342 70.51451111 11.26811218 C70.69462234 10.22725967 70.87473358 9.18640717 71.06030273 8.11401367 C71.21796616 7.19690109 71.37562958 6.27978851 71.53807068 5.33488464 C72 3 72 3 73 0 C82.9 0 92.8 0 103 0 C101.77160832 10.56416843 100.20178597 20.97060459 98.25637817 31.42379761 C95.31945068 47.22868764 92.62526358 63.06793218 90.0625 78.9375 C89.90729889 79.89830475 89.75209778 80.8591095 89.5921936 81.84902954 C88.72369782 87.23199106 87.8611499 92.61585 87 98 C76.77 98 66.54 98 56 98 C40 70 40 70 24 42 C22.58568004 47.37171045 21.50518647 52.66349762 20.703125 58.15625 C20.46473311 59.68898787 20.22511212 61.22153498 19.984375 62.75390625 C19.61352253 65.12863748 19.24950427 67.50343558 18.90625 69.88232422 C16.29243846 87.85599138 16.29243846 87.85599138 8.39477539 94.31225586 C4.02105638 97.422651 0.50173375 98.12473717 -4.7565918 98.11352539 C-6.52808846 98.11341209 -6.52808846 98.11341209 -8.33537292 98.11329651 C-9.61044205 98.10813522 -10.88551117 98.10297394 -12.19921875 98.09765625 C-13.50454056 98.0962413 -14.80986237 98.09482635 -16.15473938 98.09336853 C-19.62189656 98.0895538 -23.08901174 98.07973244 -26.55615234 98.06866455 C-30.09537182 98.05842798 -33.6345981 98.0538661 -37.17382812 98.04882812 C-44.11590265 98.03810923 -51.05794931 98.02104534 -58 98 C-57.6904175 95.46724116 -57.3789429 92.93473834 -57.06640625 90.40234375 C-56.97991821 89.69315796 -56.89343018 88.98397217 -56.80432129 88.2532959 C-54.76251537 71.76251537 -54.76251537 71.76251537 -53 70 C-49.97022196 69.91128727 -46.96332978 69.8848065 -43.93359375 69.90234375 C-43.02497086 69.9037587 -42.11634796 69.90517365 -41.18019104 69.90663147 C-38.26592779 69.91224807 -35.35174019 69.92480335 -32.4375 69.9375 C-30.46679798 69.94251286 -28.49609476 69.94707614 -26.52539062 69.95117188 C-21.68356441 69.96222289 -16.84179505 69.97949862 -12 70 C-11.90203125 69.33637451 -11.8040625 68.67274902 -11.703125 67.98901367 C-10.11820121 57.46583703 -8.32934501 46.9782147 -6.54101562 36.48803711 C-5.99947022 33.30939043 -5.46058577 30.13030004 -4.921875 26.95117188 C-4.57307727 24.90101434 -4.22412427 22.85088321 -3.875 20.80078125 C-3.71660645 19.86510818 -3.55821289 18.92943512 -3.39501953 17.96540833 C-3.24145996 17.06714828 -3.08790039 16.16888824 -2.9296875 15.2434082 C-2.73221924 14.08310844 -2.73221924 14.08310844 -2.53076172 12.89936829 C-1.7417431 8.58923161 -0.85933401 4.29667006 0 0 Z " fill="#FDFDFD" transform="translate(127,101)"/>
<path d="M0 0 C9.9 0 19.8 0 30 0 C28.87515368 8.99877057 28.87515368 8.99877057 28.16796875 13.11157227 C28.01110596 14.02934952 27.85424316 14.94712677 27.69262695 15.89271545 C27.52593506 16.85753342 27.35924316 17.82235138 27.1875 18.81640625 C27.01371826 19.83169907 26.83993652 20.84699188 26.66088867 21.89305115 C26.10894574 25.11649268 25.55464631 28.33952262 25 31.5625 C24.44564343 34.78909627 23.8918182 38.01578124 23.33911133 41.24266052 C22.99622602 43.24402701 22.65236343 45.24522639 22.30737305 47.24623108 C22.15051025 48.16085617 21.99364746 49.07548126 21.83203125 50.01782227 C21.69514893 50.8130983 21.5582666 51.60837433 21.41723633 52.42774963 C20.90078334 55.61166795 20.45615917 58.80688579 20 62 C10.1 62 0.2 62 -10 62 C-9.38901216 53.44617024 -8.76955619 45.47803215 -7.1875 37.1484375 C-7.01371826 36.20110748 -6.83993652 35.25377747 -6.66088867 34.27774048 C-6.11434851 31.30879662 -5.55724223 28.34195147 -5 25.375 C-4.62693504 23.35298792 -4.25453454 21.33085314 -3.8828125 19.30859375 C-3.2030733 15.62866979 -2.52261132 11.94890248 -1.83203125 8.27099609 C-1.69514893 7.54045013 -1.5582666 6.80990417 -1.41723633 6.05722046 C-1.00506894 4.02499287 -0.50292269 2.01169076 0 0 Z " fill="#00B0E0" transform="translate(86,101)"/>
</svg>
